<svg width="21" height="21" viewBox="0 0 21 21" fill="none" xmlns="http://www.w3.org/2000/svg">
<path d="M10.5 5.46875C8.6905 5.46875 7.21875 6.9405 7.21875 8.75C7.21875 10.5595 8.6905 12.0312 10.5 12.0312C12.3095 12.0312 13.7812 10.5595 13.7812 8.75C13.7812 6.9405 12.3095 5.46875 10.5 5.46875ZM10.5 10.7188C9.41412 10.7188 8.53125 9.83588 8.53125 8.75C8.53125 7.66412 9.41412 6.78125 10.5 6.78125C11.5859 6.78125 12.4688 7.66412 12.4688 8.75C12.4688 9.83588 11.5859 10.7188 10.5 10.7188ZM10.4965 1.96875C6.6325 1.96875 3.71875 4.88425 3.71875 8.75C3.71875 14.182 7.86275 17.5665 9.64337 18.7687C9.90237 18.9437 10.199 19.0312 10.4965 19.0312C10.7923 19.0312 11.0889 18.9438 11.3479 18.7697C13.132 17.5648 17.2812 14.1759 17.2812 8.74915C17.2812 4.8834 14.3649 1.96875 10.4965 1.96875ZM10.6138 17.682C10.5411 17.731 10.451 17.731 10.3784 17.682C9.12362 16.835 5.03125 13.6876 5.03125 8.75C5.03125 5.63238 7.38063 3.28125 10.4965 3.28125C13.6159 3.28125 15.9688 5.63238 15.9688 8.75C15.9688 13.5476 12.2238 16.5953 10.6138 17.682Z" fill="#656565"/>
</svg>
