<svg width="15" height="15" viewBox="0 0 15 15" fill="none" xmlns="http://www.w3.org/2000/svg">
<path d="M13.084 7.26898L11.1377 9.1391L11.5971 11.7772C11.6721 12.2078 11.4984 12.6372 11.1434 12.8972C10.7815 13.1616 10.309 13.1979 9.91023 12.9922L7.50024 11.7441L5.09025 12.9922C4.919 13.081 4.73337 13.1247 4.549 13.1247C4.30525 13.1247 4.06336 13.0478 3.85711 12.8972C3.50273 12.6372 3.32837 12.2078 3.40337 11.7772L3.86274 9.1391L1.9165 7.26898C1.59775 6.96273 1.48336 6.51219 1.61836 6.09344C1.75461 5.66969 2.11586 5.36786 2.56086 5.30411L5.25399 4.91837L6.45774 2.51526C6.65524 2.12026 7.05524 1.87531 7.50024 1.87531C7.94524 1.87531 8.34524 2.12088 8.54274 2.51526L9.74649 4.91837L12.4396 5.30411C12.884 5.36786 13.2452 5.66969 13.3815 6.09344C13.5165 6.51219 13.4027 6.96273 13.084 7.26898Z" fill="#FFBC3F"/>
</svg>
